<svg xmlns="http://www.w3.org/2000/svg" viewBox="0 0 124.75 24.163"><path d="M17.882 5.269h4.524v13.412h-4.524zm13.412 9.953a3.023 3.023 0 0 0 3.036-3.247 3.044 3.044 0 1 0-6.067 0 3.023 3.023 0 0 0 3.034 3.246M31.241 4.95c4.258 0 7.611 2.821 7.611 7.078 0 4.2-3.406 6.972-7.611 6.972s-7.611-2.767-7.611-6.972c.053-4.258 3.459-7.078 7.611-7.078m9.63 4.047h-1.7V5.482h1.863V1.597h4.364v3.885h2.821v3.515h-2.821v4.1c0 1.49 1.543 1.7 2.395 1.7h.585v3.885s-.479.053-1.224.053c-2.129 0-6.28-.585-6.28-5.056V8.997zm9.955 7.608h2.076v2.076h-2.076zm10.431.799c2.182 0 4.258-1.543 4.258-5.269 0-2.661-1.331-5.269-4.151-5.269-2.342 0-4.2 1.969-4.2 5.269-.053 3.193 1.65 5.269 4.1 5.269M61.158 5.27a4.568 4.568 0 0 1 4.258 2.5h.053a9.031 9.031 0 0 1-.053-1.011V1.597h1.756v17.084h-1.7v-1.384a7.487 7.487 0 0 1 .053-.958h-.053a4.745 4.745 0 0 1-4.524 2.608c-3.513 0-5.695-2.821-5.695-6.866.053-4.1 2.5-6.812 5.908-6.812m18.51 5.482c-.106-2.714-1.756-3.992-3.725-3.992a4.469 4.469 0 0 0-4.524 3.992zm-3.672-5.482c3.619 0 5.482 2.767 5.482 6.067 0 .319-.053.9-.053.9H71.369a4.914 4.914 0 0 0 5.056 5.162 6.108 6.108 0 0 0 3.992-1.6l.8 1.331a7.583 7.583 0 0 1-4.843 1.81 6.655 6.655 0 0 1-6.866-6.866c.053-4.258 2.927-6.812 6.493-6.812m7.715 10.546a5.527 5.527 0 0 0 3.885 1.6c1.384 0 2.608-.692 2.608-2.076 0-2.874-7.078-2.182-7.078-6.44 0-2.342 2.129-3.619 4.471-3.619a5.514 5.514 0 0 1 4.045 1.437l-.8 1.331a4.613 4.613 0 0 0-3.3-1.224c-1.331 0-2.608.585-2.608 2.022 0 2.874 7.078 2.129 7.078 6.44 0 2.129-1.863 3.672-4.471 3.672a6.6 6.6 0 0 1-4.843-1.916zM94.307 5.589h1.756v13.092h-1.756zm-.053-3.992h1.863v2.235h-1.863zm19.16 3.991h1.756v1.969c0 .585-.053 1.064-.053 1.064h.053a5.529 5.529 0 0 1 5.216-3.3c3.247 0 4.364 1.863 4.364 5.056v8.356h-1.756v-7.93c0-2.076-.319-3.885-2.821-3.885a5.048 5.048 0 0 0-4.79 3.725 6.356 6.356 0 0 0-.213 1.756v6.28h-1.756zm-8.835 11.389c-2.608 0-4.311-2.022-4.311-5.162s1.49-4.95 4.045-4.95c2.342 0 4.151 1.171 4.151 5s-1.81 5.109-3.885 5.109m3.885-11.389v1.437a2.2 2.2 0 0 0 .053.479h-.053s-.851-2.179-4.31-2.179c-3.513 0-5.695 2.661-5.695 6.6s2.342 6.706 5.854 6.706a4.385 4.385 0 0 0 4.151-2.289h.053a8.215 8.215 0 0 0-.053.9v1.224c0 2.874-2.767 4.1-5.269 4.1v1.6c3.193 0 7.025-1.65 7.025-5.8V5.588zM8.2 8.462H6.174V3.885h1.6c2.289 0 2.821.852 2.821 2.235A2.221 2.221 0 0 1 8.2 8.462m4.9 3.672a11.721 11.721 0 0 0-.692-1.171v-.053a5.731 5.731 0 0 0 2.767-5.056A5.437 5.437 0 0 0 11.762.426 10.738 10.738 0 0 0 8.143 0H0v3.566h1.6v15.061h4.52v-6.28H8.3l3.353 6.28h5.056z" fill="#fff"/></svg>